<?xml version="1.0" encoding="UTF-8" standalone="no"?>
<svg height="980" viewBox="0 0 980 980" width="980" version="1.1" id="svg15" xmlns="http://www.w3.org/2000/svg">
    <defs id="defs19" />
    <!-- White circle background, same as axelarnet -->
    <path
        d="m 488.16367,973.04546 c 266.47402,0 482.49675,-216.02273 482.49675,-482.49675 0,-266.47545 -216.02273,-482.4967496 -482.49675,-482.4967496 -266.47545,0 -482.4967499,216.0212996 -482.4967499,482.4967496 0,266.47402 216.0212999,482.49675 482.4967499,482.49675 z"
        fill="#ffffff" id="path11" style="stroke-width:7.1481" />
    <circle style="fill:#ffffff;stroke-width:1.633;stroke-dasharray:none" id="path3642" cx="490" cy="-490" r="490"
        transform="scale(1,-1)" />
    <!-- Scalar logo paths, scaled and centered -->
    <g transform="matrix(3.5,0,0,3.5,140,190)">
        <path
            d="M20.5419 150C17.6726 150 15.0572 148.606 13.5572 146.274C12.0725 143.963 11.9418 141.147 13.2033 138.726L94.5969 4.26161C96.02 1.59169 98.7509 0 101.897 0C105.043 0 107.766 1.59169 109.197 4.26161L190.591 138.726C191.845 141.147 191.714 143.963 190.237 146.267C188.737 148.599 186.129 149.993 183.26 149.993L177.337 149.971C174.406 149.956 170.99 147.169 167.952 142.313L101.889 31.533L36.2114 141.711C31.5651 150 28.942 150 26.3958 150H20.5342H20.5419Z"
            fill="black" />
        <path
            d="M73.4395 24.5337L64.5317 29.7195C56.6008 34.3332 49.8238 39.0203 43.8083 44.0154C25.8387 58.4066 10.4154 81.6584 16.4309 101.162L16.577 101.661L6.0615 118.04L5.07689 116.213C3.33071 112.949 2.0076 109.495 1.16912 105.937C-6.80793 70.3772 27.3542 39.0569 63.524 27.6584L73.4395 24.5264V24.5337Z"
            fill="black" />
        <path
            d="M197.755 65.7726C196.985 86.6479 183.839 107.134 160.769 123.491C157.415 125.868 153.915 128.105 150.346 130.159C143.277 134.178 135.83 137.626 128.238 140.465C111.569 146.677 94.3682 149.809 77.6218 149.809C70.4832 149.809 63.4369 149.237 56.5215 148.093L53.7906 147.66L64.3754 130.577L65.1447 130.643C83.1373 132.337 103.784 129.367 123.261 122.325C129.515 120.066 135.43 117.462 140.846 114.579C145.9 111.88 150.646 108.939 155 105.785C166.762 97.357 181.323 83.3985 183.962 64.9218C187.031 40.1589 163.554 24.8362 140.584 18.7849L129.946 15.9756L140.961 16.5477C156.008 17.3032 169.992 22.1663 180.316 30.1834C191.954 39.2274 197.97 51.5428 197.755 65.7726Z"
            fill="black" />
    </g>
</svg>